# xmcd
# 
# Track frame offsets:
#     150
#     15702
#     33717
#     48125
#     67157
#     85032
# 
# Disc length: 1339
# 
# Revision: 0
# Processed by: cddbd v1.5.2PL0 Copyright (c) Steve Scherf et al.
# Submitted via: BonkEnc v1.0.8
# 
DISCID=47053906
DTITLE=Ali Slaight - Trace The Stars
DYEAR=2008
DGENRE=Country
TTITLE0=Great Expectations
TTITLE1=Family Of Friends
TTITLE2=Apple Of My Eye
TTITLE3=Trace The Stars
TTITLE4=Solitude
TTITLE5=The Story Of My Life
EXTD=
EXTT0=
EXTT1=
EXTT2=
EXTT3=
EXTT4=
EXTT5=
PLAYORDER=
